<svg xmlns="http://www.w3.org/2000/svg" width="192" height="192" viewBox="0 0 192 192"><title>4g-mid</title><g id="57b47537-98ff-4be1-a8e8-a13fe8c76834" data-name="ICON"><g id="4ae3948b-b897-40bc-abb5-5b5e77aa38fb" data-name="Business_ic_mid"><rect width="192" height="192" fill="none"/><path d="M96,20A76,76,0,1,1,20,96,76.09,76.09,0,0,1,96,20m0-4a80,80,0,1,0,80,80A80,80,0,0,0,96,16Z" transform="translate(0 0)" fill="#6d6a69"/><path d="M122,98h14v12a9.56,9.56,0,0,1-7,9.5c-8.28,2.26-25,3.73-25-23.5,0-29.5,26.56-25.9,30.5-18.5" transform="translate(0 0)" fill="none" stroke="#e60000" stroke-linecap="round" stroke-linejoin="round" stroke-width="4"/><line x1="80" y1="72" x2="80" y2="122" fill="none" stroke="#e60000" stroke-linecap="round" stroke-linejoin="round" stroke-width="4"/><polyline points="88 108 54 108 80 72" fill="none" stroke="#e60000" stroke-linecap="round" stroke-linejoin="round" stroke-width="4"/></g></g></svg>