<svg data-name="3c54d754-f349-44b2-8061-d7aa617e1d45" xmlns="http://www.w3.org/2000/svg" width="160" height="160" viewBox="0 0 160 160"><path d="M120 78h-14a4 4 0 0 0 0 8h10v8.12a5.54 5.54 0 0 1-4.05 5.52c-4.18 1.14-10 1.85-14.05-1.24S92 89.22 92 80c0-10.66 3.88-17.5 10.93-19.25 5.85-1.46 11.23 1.11 12 2.63a4 4 0 1 0 7.07-3.76c-3-5.69-12.67-8.73-21-6.64-5.11 1.27-17 6.46-17 27 0 11.85 3 20.17 9 24.76a19.83 19.83 0 0 0 12.31 3.86 33.22 33.22 0 0 0 8.72-1.26 13.53 13.53 0 0 0 9.97-13.4V82a4 4 0 0 0-4-4zM72 88h-4V55.72a4 4 0 0 0 0-.44c0-.13-.06-.25-.1-.37s-.07-.25-.12-.37-.11-.24-.17-.35-.11-.23-.18-.34-.15-.21-.24-.31-.15-.2-.24-.29a4 4 0 0 0-.34-.3c-.07-.06-.13-.13-.2-.18h-.05a4 4 0 0 0-.41-.24c-.09 0-.18-.11-.28-.15s-.25-.09-.37-.13-.25-.09-.38-.12h-.32a4 4 0 0 0-.47 0h-.41a4 4 0 0 0-.44 0c-.13 0-.25.06-.37.1s-.25.07-.38.12-.23.11-.35.17-.23.12-.34.19-.21.15-.31.23-.2.16-.3.25a4 4 0 0 0-.3.33c-.06.07-.13.13-.18.21l-26 36A4 4 0 0 0 38 96h22v10a4 4 0 0 0 8 0V96h4a4 4 0 0 0 0-8zm-26.18 0L60 68.37V88z"/><path d="M80 0a80 80 0 1 0 80 80A80.09 80.09 0 0 0 80 0zm0 152a72 72 0 1 1 72-72 72.08 72.08 0 0 1-72 72z"/></svg>