<svg id="ICON" xmlns="http://www.w3.org/2000/svg" viewBox="0 0 192 192"><defs><style>.cls-1,.cls-2{fill:none;}.cls-1{stroke:#e60000;stroke-linecap:round;stroke-linejoin:round;stroke-width:4px;}.cls-3{fill:#6d6a69;}</style></defs><title>5G-mid</title><g id="Apps_ic_mid"><path class="cls-1" d="M122,98h14v12a9.58,9.58,0,0,1-7,9.5c-8.28,2.26-25,3.73-25-23.5,0-29.5,26.56-25.9,30.5-18.5" transform="translate(0 0)"/><path class="cls-1" d="M83.84,72.39H63.5v21l2.19-1.08A14.73,14.73,0,1,1,61.8,117" transform="translate(0 0)"/></g><rect class="cls-2" width="192" height="192"/><path class="cls-3" d="M96,20A76,76,0,1,1,20,96,76,76,0,0,1,96,20m0-4a80,80,0,1,0,80,80A80,80,0,0,0,96,16Z" transform="translate(0 0)"/></svg>