<svg data-name="240c3efa-8667-4e3e-83fb-73ecb05dc72f" xmlns="http://www.w3.org/2000/svg" width="160" height="160" viewBox="0 0 160 160"><path d="M56.83 87.7a9.88 9.88 0 0 0-17.84 0l-17.54 33.16a10.14 10.14 0 0 0-.15 10.2l.12.19a10.33 10.33 0 0 0 9.06 4.75H65.9a10.32 10.32 0 0 0 8.69-4.77l.11-.18a10.12 10.12 0 0 0-.15-10.21zm11 39.33a2.29 2.29 0 0 1-2 1H30.21a2.3 2.3 0 0 1-2-1 2.14 2.14 0 0 1 .1-2.08l17.8-33.58.1-.2a1.88 1.88 0 0 1 3.41 0l17.94 33.54.13.23a2.13 2.13 0 0 1 .1 2.06zM48 72a24 24 0 1 0-24-24 24 24 0 0 0 24 24zm0-40a16 16 0 1 1-16 16 16 16 0 0 1 16-16zm90 68.68l-23.5-18.8a4 4 0 0 0-5 0L86 100.68a4 4 0 0 0-1.3 4.39l9.4 28.2a4 4 0 0 0 3.8 2.73h28.2a4 4 0 0 0 3.79-2.74l9.4-28.2a4 4 0 0 0-1.29-4.38zM123.22 128h-22.44l-7.61-22.82L112 90.12l18.82 15.06zm-22.33-56h22.22A12.9 12.9 0 0 0 136 59.11V36.89A12.9 12.9 0 0 0 123.11 24h-22.22A12.9 12.9 0 0 0 88 36.89v22.22A12.9 12.9 0 0 0 100.89 72zM96 36.89a4.9 4.9 0 0 1 4.89-4.89h22.22a4.9 4.9 0 0 1 4.89 4.89v22.22a4.9 4.9 0 0 1-4.89 4.89h-22.22A4.9 4.9 0 0 1 96 59.11z"/><path d="M136 0H24A24 24 0 0 0 0 24v112a24 24 0 0 0 24 24h112a24 24 0 0 0 24-24V24a24 24 0 0 0-24-24zm16 136a16 16 0 0 1-16 16H24a16 16 0 0 1-16-16V24A16 16 0 0 1 24 8h112a16 16 0 0 1 16 16z"/></svg>