<?xml version="1.0" encoding="UTF-8"?>
<svg width="32px" height="32px" viewBox="0 0 32 32" version="1.1" xmlns="http://www.w3.org/2000/svg" xmlns:xlink="http://www.w3.org/1999/xlink">
    <title>410FE6D7-E252-400B-A697-53CC4A77CD85</title>
    <g id="Page-1" stroke="none" stroke-width="1" fill="none" fill-rule="evenodd">
        <g id="3rd-party-icons" transform="translate(-201.000000, -212.000000)" fill="#FFFFFF">
            <g id="Icons+Indicators-/-3rd-Party-Icons-White-/-Facebook-/-Medium" transform="translate(201.000000, 212.000000)">
                <path d="M26.5411765,0.941176471 L5.45882353,0.941176471 C2.96658824,0.948705882 0.948705882,2.96658824 0.941176471,5.45882353 L0.941176471,26.5411765 C0.948705882,29.0334118 2.96658824,31.0512941 5.45882353,31.0588235 L16.9411765,31.0588235 L16.9411765,18.4470588 L14.3058824,18.4470588 L14.3058824,14.1176471 L16.9411765,14.1176471 L16.9411765,11.5907765 C16.9411765,8.1152 18.3115294,6.02352941 22.3774118,6.02352941 L25.9764706,6.02352941 L25.9764706,10.3529412 L23.8592,10.3529412 C22.2976,10.3529412 22.2117647,10.8664471 22.2117647,12.0018824 L22.2117647,14.1176471 L25.8544941,14.1176471 L25.3967059,18.4470588 L22.2117647,18.4470588 L22.2117647,31.0588235 L26.5411765,31.0588235 C29.0334118,31.0512941 31.0512941,29.0334118 31.0588235,26.5411765 L31.0588235,5.45882353 C31.0512941,2.96658824 29.0334118,0.948705882 26.5411765,0.941176471" id="Fill-1"></path>
            </g>
        </g>
    </g>
</svg>