<?xml version="1.0" encoding="UTF-8"?>
<svg width="32px" height="32px" viewBox="0 0 32 32" version="1.1" xmlns="http://www.w3.org/2000/svg" xmlns:xlink="http://www.w3.org/1999/xlink">
    <title>8AD0CBB8-F71D-4CEB-B384-A4269A39AB5F</title>
    <g id="Page-1" stroke="none" stroke-width="1" fill="none" fill-rule="evenodd">
        <g id="3rd-party-icons" transform="translate(-201.000000, -274.000000)" fill="#FFFFFF">
            <g id="Icons+Indicators-/-3rd-Party-Icons-White-/-Google-/-Medium" transform="translate(201.000000, 274.000000)">
                <path d="M31.0407673,16.9442054 L27.652532,16.9442054 L27.652532,20.3324407 L25.2054732,20.3324407 L25.2054732,16.9442054 L22.0054732,16.9442054 L22.0054732,14.4971466 L25.2054732,14.4971466 L25.2054732,11.1089113 L27.652532,11.1089113 L27.652532,14.4971466 L30.852532,14.4971466 L30.852532,16.9065583 L31.0407673,16.9442054 Z M10.4658967,25.6030289 C5.21639085,25.6120642 0.951732028,21.3639701 0.941176471,16.1129583 C0.932155558,10.8604407 5.18175556,6.59728773 10.4327673,6.58823529 C12.8135673,6.58373479 15.1100379,7.47220538 16.8658967,9.07898185 L14.0830261,11.8347466 C11.729332,9.84397009 8.20556732,10.1361113 6.21479085,12.4898054 C4.2225085,14.8434995 4.51615556,18.3657583 6.86984968,20.3595466 C9.22354379,22.350323 12.7458026,22.0581818 14.738085,19.7044877 L14.738085,19.7029818 C15.1537085,19.2241113 15.4789791,18.6714524 15.6928144,18.0736171 L10.334885,18.0736171 L10.334885,14.120676 L19.7586967,14.120676 C20.8444379,19.266276 17.5601085,24.3185113 12.4160144,25.4147936 C11.7760144,25.5533348 11.1209556,25.6165818 10.4658967,25.6030289 L10.4658967,25.6030289 Z" id="Fill-1"></path>
            </g>
        </g>
    </g>
</svg>