<?xml version="1.0" encoding="utf-8"?>
<!-- Generator: Adobe Illustrator 22.0.0, SVG Export Plug-In . SVG Version: 6.00 Build 0)  -->
<svg version="1.1" id="Layer_1" xmlns="http://www.w3.org/2000/svg" xmlns:xlink="http://www.w3.org/1999/xlink" x="0px" y="0px"
     viewBox="0 0 24 24" style="enable-background:new 0 0 24 24;" xml:space="preserve">
<style type="text/css">
	.st0{fill:none;}
	.st1{fill:#E60000;}
</style>
    <path class="st1" d="M22,12c0-1.9-0.6-3.7-1.5-5.3V4c0-0.3-0.2-0.5-0.5-0.5h-2.7C15.7,2.6,13.9,2,12,2c-1.9,0-3.7,0.6-5.2,1.5H4
	C3.7,3.5,3.5,3.7,3.5,4v2.7C2.6,8.3,2,10.1,2,12c0,1.9,0.6,3.7,1.5,5.2V20c0,0.3,0.2,0.5,0.5,0.5h2.7C8.3,21.4,10.1,22,12,22
	c1.9,0,3.7-0.6,5.3-1.5H20c0.3,0,0.5-0.2,0.5-0.5v-2.7C21.4,15.7,22,13.9,22,12z M21,12c0,1-0.2,2-0.5,2.9V12c0,0,0,0,0,0s0,0,0,0
	V9.1C20.8,10,21,11,21,12z M7,19.5c-0.4-0.2-0.7-0.5-1-0.8l5.5-5.5v6.3H7z M4.5,17v-4.5h6.3L5.3,18C5,17.7,4.7,17.3,4.5,17z M17,4.5
	c0.4,0.2,0.7,0.5,1,0.8l-5.5,5.5V4.5H17z M19.5,11.5h-6.3L18.7,6c0.3,0.3,0.6,0.7,0.8,1V11.5z M11.5,10.8L6,5.3C6.3,5,6.7,4.7,7,4.5
	h4.5V10.8z M5.3,6l5.5,5.5H4.5V7C4.7,6.7,5,6.3,5.3,6z M12.5,13.2l5.5,5.5c-0.3,0.3-0.7,0.6-1,0.8h-4.5V13.2z M18.7,18l-5.5-5.5h6.3
	V17C19.3,17.3,19,17.7,18.7,18z M19.5,4.5v0.9c-0.3-0.3-0.6-0.6-0.9-0.9H19.5z M12,3c1,0,2,0.2,2.9,0.5H12c0,0,0,0,0,0s0,0,0,0H9.1
	C10,3.2,11,3,12,3z M4.5,4.5h0.9C5.1,4.8,4.8,5.1,4.5,5.4V4.5z M3,12c0-1,0.2-2,0.5-2.9V12c0,0,0,0,0,0s0,0,0,0v2.9
	C3.2,14,3,13,3,12z M4.5,19.5v-0.9c0.1,0.2,0.3,0.3,0.4,0.4c0,0,0,0,0,0c0,0,0,0,0,0c0.1,0.1,0.3,0.3,0.4,0.4H4.5z M12,21
	c-1,0-2-0.2-2.9-0.5H12c0,0,0,0,0,0s0,0,0,0h2.9C14,20.8,13,21,12,21z M19.5,19.5h-0.9c0.2-0.1,0.3-0.3,0.4-0.4c0,0,0,0,0,0s0,0,0,0
	c0.1-0.1,0.3-0.3,0.4-0.4V19.5z"/>
</svg>
