<?xml version="1.0" encoding="utf-8"?>
<!-- Generator: Adobe Illustrator 22.0.0, SVG Export Plug-In . SVG Version: 6.00 Build 0)  -->
<svg version="1.1" id="Layer_1" xmlns="http://www.w3.org/2000/svg" xmlns:xlink="http://www.w3.org/1999/xlink" x="0px" y="0px"
	 viewBox="0 0 24 24" style="enable-background:new 0 0 24 24;" xml:space="preserve">

<path fill="#fff" d="M21.9,21.1l-6.7-6.7c2.6-2.9,2.5-7.4-0.3-10.2C13.4,2.8,11.5,2,9.5,2S5.6,2.8,4.2,4.2c-2.9,2.9-2.9,7.7,0,10.6
	C5.7,16.3,7.6,17,9.5,17c1.8,0,3.5-0.6,4.9-1.9l6.7,6.7c0.1,0.1,0.2,0.1,0.4,0.1s0.3,0,0.4-0.1C22,21.7,22,21.3,21.9,21.1z
	 M4.9,14.1c-2.5-2.5-2.5-6.7,0-9.2C6.1,3.7,7.8,3,9.5,3s3.4,0.7,4.6,1.9c2.5,2.5,2.5,6.7,0,9.2c0,0,0,0,0,0s0,0,0,0
	C11.6,16.6,7.4,16.6,4.9,14.1z"/>
</svg>
