<?xml version="1.0" encoding="UTF-8"?>
<svg width="73px" height="73px" viewBox="0 0 73 73" version="1.1" xmlns="http://www.w3.org/2000/svg" xmlns:xlink="http://www.w3.org/1999/xlink">
    <title>EFC51E9D-32E0-403E-9B81-0BFB28F108B5</title>
    <g id="Page-1" stroke="none" stroke-width="1" fill="none" fill-rule="evenodd">
        <g id="Mobile" transform="translate(-123.000000, -732.000000)">
            <g id="Avatar-/-SystemIcon-/-XX-Large" transform="translate(98.000000, 707.000000)">
                <g id="Content" transform="translate(0.753906, 0.078237)">
                    <g id="Icons+Indicators-/-HiFi-Icons-/-admin" transform="translate(25.000000, 25.000000)">
                        <g id="my_vodafone_hi">
                            <rect id="Rectangle_path" fill-opacity="0" fill="#D8D8D8" x="0" y="0" width="72" height="72"></rect>
                            <circle id="1630202a_192c_4069_a8a9_0572a26d12c3" fill="#EBEBEB" fill-rule="nonzero" cx="36" cy="21.7275" r="14.31"></circle>
                            <path d="M55.44375,62.505 C56.6494897,62.2524706 57.6989845,61.5166753 58.3474255,60.4692481 C58.9958666,59.421821 59.1865513,58.1543537 58.875,56.9625 C55.27125,42.7125 45.66375,36.0375 36.1275,36.0375 C26.59125,36.0375 16.77375,42.69 13.125,56.9475 C12.8089571,58.1430459 12.9988329,59.4159646 13.6500232,60.4672326 C14.3012135,61.5185006 15.3563251,62.2554635 16.5675,62.505 C22.9821955,63.8349527 29.5163871,64.5034508 36.0675,64.5000133 C42.5772546,64.4950156 49.0695516,63.8265615 55.44375,62.505 L55.44375,62.505 Z" id="b2ca7fa1_619f_45ca_903c_57092e202b64" fill="#EBEBEB" fill-rule="nonzero"></path>
                            <path d="M32.52375,35.625 C36.7983593,36.6969992 41.3284789,35.7390816 44.8032289,33.0284396 C48.2779789,30.3177976 50.3095253,26.1569794 50.31,21.75 C50.31,21.6225 50.31,21.49875 50.31,21.375 C50.13205,29.1444093 43.7826969,35.3500024 36.01125,35.3500024 C28.2398031,35.3500024 21.89045,29.1444093 21.7125,21.375 C21.7125,21.49875 21.7125,21.6225 21.7125,21.75 C21.7141552,28.304892 26.1681254,34.0210522 32.52375,35.625 L32.52375,35.625 Z" id="Shape" fill="#000000" fill-rule="nonzero" opacity="0.0599999987"></path>
                            <path d="M59.01,57.72 C58.8460038,59.7063538 57.3949035,61.3481876 55.44375,61.755 C49.0634194,63.0778553 42.5647726,63.7463162 36.04875,63.75 C29.4976371,63.7534508 22.9634455,63.0849527 16.54875,61.755 C14.5963543,61.3477837 13.1449121,59.7040368 12.9825,57.71625 C12.7885839,59.9848428 14.3197016,62.0408231 16.54875,62.505 C22.9634455,63.8349527 29.4976371,64.5034508 36.04875,64.5000133 C42.5647726,64.4963162 49.0634194,63.8278553 55.44375,62.505 C57.6712654,62.040977 59.2019225,59.9872247 59.01,57.72 L59.01,57.72 Z" id="Shape" fill="#000000" fill-rule="nonzero" opacity="0.0599999987"></path>
                        </g>
                    </g>
                </g>
            </g>
        </g>
    </g>
</svg>