<svg data-name="c095e627-3d12-4d6a-842f-809fdbaca0cc" xmlns="http://www.w3.org/2000/svg" width="160" height="160" viewBox="0 0 160 160"><path d="M155.6 111.4c4-5.6 7.49-15.71.23-25.29 2.59-8.07 3.31-16.46-8.11-24.2-9.58-6.5-27.67-3.12-39.63-.88-1.73.32-3.31.62-4.65.84-.36-2.87 1.36-10.17 2.56-15.21 3.08-13.14 6.91-29.49-.55-39.16-3.69-4.77-9.57-7.29-17.5-7.5a4.06 4.06 0 0 0-1.66.31C80.22 2.05 80.06 10.63 80.64 18c-.17 11.22-19.19 36.11-30.58 51-1.9 2.48-3.63 4.75-5.14 6.76A23.85 23.85 0 0 0 32 72h-8A24 24 0 0 0 0 96v40a24 24 0 0 0 24 24h105.58c7.74 0 14.61-3.35 18.37-9a18.16 18.16 0 0 0 2-15.7c8.33-10.63 7.05-19.6 5.65-23.9zM27.21 152H24a16 16 0 0 1-16-16V96a16 16 0 0 1 16-16h8a16 16 0 0 1 16 16v56zm120.85-44a3.93 3.93 0 0 0-.51 4.73c.18.33 4.41 8.17-5.12 19.16a4 4 0 0 0-.68 4.14c1.64 4 1.49 7.64-.45 10.52-2.24 3.34-6.73 5.41-11.72 5.41H56V96a23.87 23.87 0 0 0-5.13-14.8c1.57-2.12 3.46-4.58 5.54-7.31 17-22.22 32.22-43.22 32.22-56v-.32c-.48-6 0-8.54.33-9.5 4.82.32 8.15 1.74 10.14 4.32 5.14 6.67 1.79 21-.9 32.45-2.84 12.16-5.3 22.58 2.58 25.1a4 4 0 0 0 1.72.16c1.87-.24 4.28-.69 7.06-1.21 10-1.87 26.81-5 33.67-.36 7.58 5.14 7.13 9.15 4.32 17.08a4 4 0 0 0 .82 4c7.98 8.73.55 17.48-.31 18.39z"/></svg>