<svg data-name="e3f15eea-2282-48c7-bb10-fa85e7fa5f82" xmlns="http://www.w3.org/2000/svg" width="160" height="160" viewBox="0 0 160 160"><path d="M80 24a32 32 0 1 0 32 32 32 32 0 0 0-32-32zm0 56a24 24 0 1 1 24-24 24 24 0 0 1-24 24z"/><path d="M136 58.76C136 25.81 111.4 0 80 0a54.74 54.74 0 0 0-40.18 17A58.94 58.94 0 0 0 24 57.87c0 42.58 50.89 98.48 53.05 100.84A4 4 0 0 0 80 160h.06a4 4 0 0 0 3-1.38c.47-.55 11.65-13.45 15.34-18 11.28-14 37.6-49.94 37.6-81.86zm-43.85 76.8c-2.45 3-8.5 10.08-12.18 14.35-10.9-12.65-48-58.19-48-92C32 29.44 52.64 8 80 8c26.92 0 48 22.3 48 50.76 0 9.78-3.49 36.85-35.85 76.8z"/></svg>