<?xml version="1.0" encoding="UTF-8"?>
<svg width="32px" height="32px" viewBox="0 0 32 32" version="1.1" xmlns="http://www.w3.org/2000/svg" xmlns:xlink="http://www.w3.org/1999/xlink">
    <title>D91CCD82-8266-4B44-B14F-56B2390679D2</title>
    <g id="Page-1" stroke="none" stroke-width="1" fill="none" fill-rule="evenodd">
        <g id="3rd-party-icons" transform="translate(-79.000000, -584.000000)">
            <g id="Icons+Indicators-/-3rd-Party-Icons-/-Spotify-/-App-Launcher" transform="translate(79.000000, 584.000000)">
                <g id="Spotify">
                    <path d="M24.375,9.86076132e-32 C29,9.86076132e-32 32,3 32,7.625 L32,24.375 C32,29 29,32 24.375,32 L7.625,32 C3,32 0,29 0,24.375 L0,7.625 C0,3 3,2.3017203e-24 7.625,2.3017203e-24 L24.375,9.86076132e-32 Z" id="App-Icon-Shape" fill="#191414"></path>
                    <path d="M16.1192413,3.44145996 C23.1148481,3.44145996 28.785908,9.1125198 28.785908,16.1081266 C28.785908,23.1037335 23.1148481,28.7747933 16.1192413,28.7747933 C9.12363448,28.7747933 3.45257464,23.1037335 3.45257464,16.1081266 C3.45257464,9.1125198 9.12363448,3.44145996 16.1192413,3.44145996 Z M14.2562738,18.5792252 C12.6487605,18.560787 11.7559808,18.601906 9.48633393,19.1329674 C9.04542874,19.2361322 8.7357998,19.6347881 8.82262163,20.0533831 C8.91727687,20.5099238 9.31673661,20.7812212 9.79128558,20.6831107 C10.5526318,20.525641 11.3187917,20.4050516 12.0916909,20.3238515 C13.7036073,20.1545036 15.3069808,20.19093 16.8986986,20.5179779 C18.3064767,20.8072131 19.6240582,21.3224588 20.8440236,22.0858658 C21.1891418,22.3018643 21.5545031,22.2671133 21.8264349,22.0118111 C22.2366198,21.6267597 22.1465219,21.041287 21.623394,20.715281 C19.367745,19.3098366 16.8899188,18.6394303 14.2562738,18.5792252 Z M13.9986934,14.489377 C13.0869736,14.4692941 12.1824545,14.5485007 11.2825482,14.6769302 C10.4944762,14.7894395 9.7172614,14.9592162 8.95501034,15.1898604 C8.40056411,15.3576119 8.10213297,15.8932691 8.25582079,16.4188004 C8.41142126,16.950801 8.94505326,17.2459694 9.49708054,17.0858685 C11.5850296,16.480343 13.7083067,16.3376249 15.864099,16.5723195 C18.0776085,16.8132583 20.1766961,17.4073078 22.1012816,18.5560849 C22.6031296,18.8556411 23.1785026,18.7153982 23.4741773,18.236727 C23.7659704,17.7644126 23.6253336,17.1831891 23.120504,16.875476 C22.7453415,16.6467444 22.3590968,16.4325265 21.9635138,16.2413731 C19.4481978,15.0255967 16.7788002,14.5020906 13.9986934,14.489377 Z M15.940912,10.1906068 C14.5917558,10.0951426 13.2433871,10.1221449 11.8976061,10.2483241 C10.6742916,10.3629712 9.46515327,10.5629566 8.28605495,10.9172487 C7.59676623,11.1243784 7.23712999,11.7520683 7.42535818,12.396072 C7.61617409,13.0489077 8.24437023,13.380079 8.93759678,13.1906132 C12.1733666,12.3062895 15.4359699,12.3260349 18.7101617,12.9226722 C20.453382,13.2403986 22.1162707,13.7945073 23.6626559,14.6826002 C24.4462837,15.1326939 25.4026697,14.5543395 25.4071701,13.4927572 C25.4035136,13.2205407 25.219392,12.8811562 24.8518801,12.6458428 C24.7100057,12.5550477 24.5619434,12.4732534 24.4131497,12.3940468 C21.7647351,10.984473 18.9012589,10.4000993 15.940912,10.1906068 Z" id="Icon" fill="#1ED760"></path>
                </g>
            </g>
        </g>
    </g>
</svg>