<?xml version="1.0" encoding="UTF-8"?>
<svg width="32px" height="32px" viewBox="0 0 32 32" version="1.1" xmlns="http://www.w3.org/2000/svg" xmlns:xlink="http://www.w3.org/1999/xlink">
    <title>6BE8A219-2BA8-4D15-9D0B-F67555985A7E</title>
    <g id="Page-1" stroke="none" stroke-width="1" fill="none" fill-rule="evenodd">
        <g id="3rd-party-icons" transform="translate(-201.000000, -646.000000)">
            <g id="Icons+Indicators-/-3rd-Party-Icons-White-/-Spotify-/-Medium" transform="translate(201.000000, 646.000000)">
                <rect id="Rectangle" x="0" y="0" width="32" height="32"></rect>
                <path d="M23.8871468,14.4869581 C19.5892353,11.9345458 12.4999264,11.6998595 8.39705607,12.9450979 C7.73805572,13.1450748 7.04132087,12.7731432 6.84166239,12.1143021 C6.64200391,11.4549833 7.01361706,10.7587261 7.67293585,10.5584308 C12.3827424,9.12881873 20.2122526,9.4049015 25.160089,12.3419828 C25.7526957,12.693853 25.9471001,13.4592105 25.5958667,14.050862 C25.2443149,14.6434687 24.4783206,14.8388283 23.8871468,14.4869581 Z M23.7463987,18.2674134 C23.4448412,18.7566881 22.8051061,18.9101736 22.3164682,18.6097306 C18.7332832,16.4072778 13.2694235,15.7691349 9.03026323,17.0559291 C8.48048593,17.2219927 7.8999797,16.9121558 7.73296076,16.3633339 C7.56737479,15.8137158 7.87737084,15.2341648 8.42619284,15.0669867 C13.2687866,13.5974111 19.2889515,14.3091124 23.4044,16.838279 C23.8930378,17.1391997 24.0468417,17.7792532 23.7463987,18.2674134 Z M22.1148992,21.8980452 C21.8752771,22.2909935 21.363712,22.4140684 20.9721967,22.1746056 C17.8411887,20.2609731 13.9002424,19.8288573 9.25905847,20.888926 C8.81181711,20.991462 8.3660087,20.7112395 8.26395042,20.2639982 C8.1615737,19.816916 8.44084083,19.3711076 8.88903749,19.2690494 C13.968069,18.1080369 18.3247316,18.6076607 21.8391348,20.7551835 C22.2309686,20.9944871 22.354362,21.5063707 22.1148992,21.8980452 Z M16,2.66666667 C8.63635966,2.66666667 2.66666667,8.63620044 2.66666667,15.9998408 C2.66666667,23.3642772 8.63635966,29.3333333 16,29.3333333 C23.3639588,29.3333333 29.3333333,23.3642772 29.3333333,15.9998408 C29.3333333,8.63620044 23.3639588,2.66666667 16,2.66666667 L16,2.66666667 Z" id="Spotify_Icon_RGB_White" fill="#FFFFFE"></path>
            </g>
        </g>
    </g>
</svg>