<?xml version="1.0" encoding="UTF-8"?>
<svg width="32px" height="32px" viewBox="0 0 32 32" version="1.1" xmlns="http://www.w3.org/2000/svg" xmlns:xlink="http://www.w3.org/1999/xlink">
    <title>0705E217-F99A-4A27-8D23-C62608154505</title>
    <g id="Page-1" stroke="none" stroke-width="1" fill="none" fill-rule="evenodd">
        <g id="3rd-party-icons" transform="translate(-201.000000, -336.000000)" fill="#FFFFFF">
            <g id="Icons+Indicators-/-3rd-Party-Icons-White-/-Twitter-/-Medium" transform="translate(201.000000, 336.000000)">
                <path d="M28.7322353,8.1310949 C27.7624471,8.55575372 26.7369412,8.83885961 25.6873412,8.97137725 C26.7956706,8.29975372 27.6284235,7.25467137 28.0304941,6.02285961 C26.9884235,6.64930666 25.8454588,7.08751843 24.6512941,7.31942431 C22.6349176,5.17956549 19.2647529,5.08017725 17.1248941,7.09655372 C15.7455059,8.39462431 15.1612235,10.3266714 15.5873882,12.1728831 C11.3061647,11.9590478 7.31557647,9.93514196 4.61402353,6.60563608 C3.20301176,9.04365961 3.93035294,12.1593302 6.27651765,13.7194243 C5.43322353,13.698342 4.608,13.4694478 3.87463529,13.0553302 L3.87463529,13.1140596 C3.87011765,15.643942 5.65157647,17.8244596 8.13176471,18.3274243 C7.34870588,18.5352361 6.528,18.5698714 5.72988235,18.4253067 C6.42710588,20.5877537 8.4224,22.069542 10.6932706,22.1132125 C8.46155294,23.8494949 5.63350588,24.6355655 2.82352941,24.2997537 C5.25101176,25.8643655 8.07604706,26.7001302 10.9628235,26.7076596 C20.7510588,26.7076596 26.0969412,18.6045067 26.0969412,11.573542 C26.0969412,11.3401302 26.0969412,11.1052125 26.0773647,10.8913773 C27.1299765,10.1459655 28.0304941,9.21081255 28.7322353,8.1310949" id="Fill-1"></path>
            </g>
        </g>
    </g>
</svg>