<?xml version="1.0" encoding="UTF-8"?>
<svg width="32px" height="32px" viewBox="0 0 32 32" version="1.1" xmlns="http://www.w3.org/2000/svg" xmlns:xlink="http://www.w3.org/1999/xlink">
    <title>B46FF402-89D6-4B42-904E-24086F8F76B2</title>
    <defs>
        <linearGradient x1="50%" y1="0%" x2="50%" y2="100%" id="linearGradient-1">
            <stop stop-color="#64FF80" offset="0%"></stop>
            <stop stop-color="#04B622" offset="100%"></stop>
        </linearGradient>
    </defs>
    <g id="Page-1" stroke="none" stroke-width="1" fill="none" fill-rule="evenodd">
        <g id="3rd-party-icons" transform="translate(-79.000000, -708.000000)">
            <g id="Icons+Indicators-/-3rd-Party-Icons-/-WhatsApp-/-App-Launcher" transform="translate(79.000000, 708.000000)">
                <g id="WhatsApp">
                    <path d="M24.375,2.84217094e-14 C29,2.84217094e-14 32,3 32,7.625 L32,24.375 C32,29 29,32 24.375,32 L7.625,32 C3,32 0,29 0,24.375 L0,7.625 C0,3 3,2.84217094e-14 7.625,2.84217094e-14 L24.375,2.84217094e-14 Z" id="App-Icon-Shape" fill="url(#linearGradient-1)"></path>
                    <g id="Icon" transform="translate(4.800000, 4.266667)" fill="#FFFFFF">
                        <path d="M0.578987434,21.1726778 L5.60864264,19.7773116 L6.33057163,19.5770284 L6.99064834,19.9314202 C8.37229277,20.6732181 9.91764668,21.0666667 11.5239672,21.0666667 C16.8259008,21.0666667 21.1239672,16.7686003 21.1239672,11.4666667 C21.1239672,6.16473307 16.8259008,1.86666667 11.5239672,1.86666667 C6.22203356,1.86666667 1.92396715,6.16473307 1.92396715,11.4666667 C1.92396715,13.2102677 2.38776167,14.8815158 3.25496829,16.3470686 L3.65889878,17.0296989 L3.44787122,17.7942976 L2.09702659,22.6887018 L1.01902173,22.9877703 L0.281351118,22.2510789 L0.578987434,21.1726778 L0.578987434,21.1726778 L0.578987434,21.1726778 Z M0.0573004875,11.4666667 C0.0573004875,5.13380154 5.19110202,0 11.5239672,0 C17.8568323,0 22.9906338,5.13380154 22.9906338,11.4666667 C22.9906338,17.7995318 17.8568323,22.9333333 11.5239672,22.9333333 C9.56496922,22.9333333 7.72070993,22.4420788 6.10766007,21.5760406 L0,23.2704753 L1.64848095,17.2976699 C0.637528981,15.5891918 0.0573004875,13.595689 0.0573004875,11.4666667 L0.0573004875,11.4666667 Z" id="Shape" fill-rule="nonzero"></path>
                        <path d="M8.65938404,6.8881233 L9.42231737,8.70758997 C9.42231737,8.70758997 9.73538404,9.43158997 9.05058404,9.99878997 C8.3660507,10.5662566 8.8352979,11.1350566 8.8352979,11.1350566 C8.8352979,11.1350566 9.68523185,12.6780581 12.1281652,14.1508581 C12.1281652,14.1508581 12.7799174,14.60279 13.3516507,13.99719 C13.3516507,13.99719 13.742584,13.60359 14.0727174,13.18839 C14.0727174,13.18839 14.4832634,12.6181564 15.1012507,13.00919 C15.1012507,13.00919 16.0128502,13.5196935 16.903384,13.98119 C16.903384,13.98119 17.7186693,14.3126212 17.3600026,15.1790212 C17.3600026,15.1790212 16.3307276,17.4684804 13.7656464,16.9272278 C13.7656464,16.9272278 11.9182137,16.7373698 10.2885045,15.5529653 C10.038251,15.3710914 9.96292318,15.3255534 9.38827057,14.8594686 C9.34445734,14.8239329 9.07207073,14.5720227 9.0278979,14.5322968 C8.72515647,14.2600325 8.39687864,13.9254654 8.22842636,13.7440735 C6.9181296,12.3331263 6.34871737,11.1350566 6.34871737,11.1350566 C6.34871737,11.1350566 5.71901776,9.86505305 5.6287854,9.10529429 C5.6287854,9.10529429 5.32037136,7.44852193 6.72258404,6.4969233 C6.72258404,6.4969233 8.0724507,5.4601233 8.65938404,6.8881233 Z" id="Phone"></path>
                    </g>
                </g>
            </g>
        </g>
    </g>
</svg>