<?xml version="1.0" encoding="UTF-8"?>
<svg width="36px" height="36px" viewBox="0 0 36 36" version="1.1" xmlns="http://www.w3.org/2000/svg" xmlns:xlink="http://www.w3.org/1999/xlink">
    <title>8668DD7E-638B-48A6-887A-A84F423D18D1</title>
    <defs>
        <polygon id="path-1" points="0 1.42517815e-05 29.8476485 1.42517815e-05 29.8476485 29.9910926 0 29.9910926"></polygon>
    </defs>
    <g id="Page-1" stroke="none" stroke-width="1" fill="none" fill-rule="evenodd">
        <g id="3rd-party-icons" transform="translate(-199.000000, -708.000000)">
            <g id="Icons+Indicators-/-3rd-Party-Icons-White-/-Whatsapp-/-Medium" transform="translate(199.000000, 708.000000)">
                <rect id="Rectangle" x="0" y="0" width="36" height="36"></rect>
                <g id="Group-3" transform="translate(3.000000, 3.000000)">
                    <mask id="mask-2" fill="white">
                        <use xlink:href="#path-1"></use>
                    </mask>
                    <g id="Clip-2"></g>
                    <path d="M21.7616865,17.9722945 C21.3903563,17.7865226 19.5647743,16.8882328 19.2243705,16.7642423 C18.8839667,16.640323 18.6364133,16.578399 18.3888599,16.9500143 C18.1413064,17.321772 17.429715,18.158209 17.2130166,18.4061188 C16.9964608,18.6538147 16.7798337,18.6849549 16.4085748,18.4990404 C16.0371734,18.3131259 14.8406651,17.9210594 13.4223278,16.6558575 C12.3183848,15.6712732 11.5731591,14.4553112 11.3565321,14.0834822 C11.1399762,13.7117957 11.3335154,13.5108456 11.5194299,13.3256437 C11.6864608,13.1592542 11.8907601,12.8918907 12.0763895,12.6751211 C12.2620903,12.4582803 12.323943,12.3032922 12.4477197,12.0556675 C12.5714964,11.8077577 12.5096437,11.5909169 12.4167933,11.4050736 C12.323943,11.2192304 11.5812827,9.39136817 11.2718765,8.64778147 C10.9704513,7.92386223 10.664323,8.02191449 10.4363658,8.01037055 C10.2200238,7.99961045 9.97218527,7.99733017 9.72470309,7.99733017 C9.47714964,7.99733017 9.07482185,8.09025178 8.73448931,8.46193824 C8.39408551,8.83376722 7.4347981,9.73212827 7.4347981,11.559848 C7.4347981,13.387639 8.76541568,15.1532922 8.95111639,15.4011306 C9.13674584,15.6490404 11.5695249,19.3996817 15.2945843,21.008209 C16.1805463,21.3907981 16.8722565,21.6193254 17.4114727,21.7903468 C18.3010689,22.0731021 19.1105701,22.0331971 19.7503325,21.9375677 C20.4637767,21.8309644 21.9473159,21.0392779 22.2567933,20.1719145 C22.5661995,19.3044086 22.5661995,18.5609644 22.4733492,18.4061188 C22.3805701,18.2512019 22.1330166,18.158209 21.7616865,17.9722945 M14.986247,27.2234822 L14.9812589,27.2234822 C12.7648219,27.2226271 10.5908551,26.6271876 8.69429929,25.5017245 L8.24330166,25.2340048 L3.56821853,26.4603705 L4.81603325,21.9022233 L4.5223753,21.4349074 C3.28589074,19.4682328 2.63287411,17.1952874 2.63379949,14.8612732 C2.63650831,8.05077435 8.17774347,2.50996675 14.9911639,2.50996675 C18.2904513,2.51110689 21.3918527,3.79768646 23.7240143,6.13248456 C26.0561045,8.4672114 27.3396912,11.5707506 27.3384807,14.8711781 C27.3357007,21.682247 21.7944656,27.2234822 14.986247,27.2234822 M25.4989311,4.35835154 C22.6931116,1.54925416 18.9617102,0.00158194774 14.9861045,1.42517815e-05 C6.79467933,1.42517815e-05 0.12783848,6.66635629 0.12456057,14.8602755 C0.123491686,17.4796105 0.807790974,20.0362375 2.10833729,22.2900855 L0,29.9911069 L7.87824228,27.9244561 C10.0489311,29.1084228 12.4928979,29.7325083 14.98019,29.7333634 L14.986247,29.7333634 L14.9863183,29.7333634 C23.1768884,29.7333634 29.8443705,23.0663088 29.8476495,14.8721758 C29.8491449,10.9012732 28.3047506,7.16737767 25.4989311,4.35835154" id="Fill-1" fill="#FFFFFF" mask="url(#mask-2)"></path>
                </g>
            </g>
        </g>
    </g>
</svg>