<?xml version="1.0" encoding="UTF-8"?>
<svg width="32px" height="32px" viewBox="0 0 32 32" version="1.1" xmlns="http://www.w3.org/2000/svg" xmlns:xlink="http://www.w3.org/1999/xlink">
    <title>651EF8D1-8AD1-405C-A18B-3C9BD924865C</title>
    <g id="Page-1" stroke="none" stroke-width="1" fill="none" fill-rule="evenodd">
        <g id="3rd-party-icons" transform="translate(-201.000000, -398.000000)" fill="#FFFFFF">
            <g id="Icons+Indicators-/-3rd-Party-Icons-White-/-Youtube-/-Medium" transform="translate(201.000000, 398.000000)">
                <path d="M20.3817412,16.6780235 L14.2061176,21.0255059 C13.9621647,21.1956706 13.6263529,21.1369412 13.4531765,20.8944941 C13.3854118,20.8026353 13.3537882,20.6896941 13.3598118,20.5737412 L13.3598118,11.5580235 C13.3568,11.2628706 13.5917176,11.0204235 13.8868706,11.0113882 C13.9998118,11.0144 14.1097412,11.0475294 14.2061176,11.1062588 L20.3817412,15.4552471 C20.7130353,15.6856471 20.7928471,16.1434353 20.5609412,16.4747294 C20.5579294,16.4792471 20.5534118,16.4852706 20.5504,16.4897882 C20.5097412,16.5650824 20.4510118,16.6283294 20.3817412,16.6780235 M30.7151059,9.78861176 C30.5133176,8.01167059 29.1203765,6.60517647 27.3464471,6.38230588 C19.8095059,5.40197647 12.1807059,5.40197647 4.64527059,6.38230588 C2.87435294,6.60668235 1.48894118,8.01468235 1.29468235,9.78861176 C0.823341176,13.9734588 0.823341176,18.1959529 1.29468235,22.3823059 C1.48894118,24.1547294 2.87435294,25.5642353 4.64527059,25.7886118 C8.41449412,26.2780235 12.2123294,26.5234824 16.0146824,26.5234824 C19.8095059,26.5234824 23.6013176,26.2780235 27.3645176,25.7886118 C29.1339294,25.5642353 30.5193412,24.1547294 30.7151059,22.3823059 C30.9560471,20.2876235 31.0765176,18.1839059 31.073561,16.0756706 C31.0765176,13.9749647 30.9560471,11.8757647 30.7151059,9.78861176" id="Fill-1"></path>
            </g>
        </g>
    </g>
</svg>